<svg xmlns="http://www.w3.org/2000/svg" xmlns:xlink="http://www.w3.org/1999/xlink" width="200" zoomAndPan="magnify" viewBox="0 0 150 120.749998" height="161" preserveAspectRatio="xMidYMid meet" version="1.0"><defs><clipPath id="46bad1c52a"><path d="M 0.15625 5.613281 L 92 5.613281 L 92 120 L 0.15625 120 Z M 0.15625 5.613281 " clip-rule="nonzero"/></clipPath><clipPath id="3e4e26fd7a"><path d="M 70 8 L 149.84375 8 L 149.84375 116 L 70 116 Z M 70 8 " clip-rule="nonzero"/></clipPath></defs><g clip-path="url(#46bad1c52a)"><path fill="#0c303d" d="M 83.453125 80.476562 L 70.800781 68.488281 C 70.800781 68.488281 79.621094 46.5 83.453125 39.617188 C 85.09375 36.675781 87.054688 32.792969 88.183594 28.503906 C 88.285156 28.523438 88.386719 28.53125 88.492188 28.53125 C 90.144531 28.53125 91.480469 26.125 91.480469 23.152344 C 91.480469 20.917969 90.726562 19.003906 89.648438 18.1875 C 89.648438 18.1875 88.152344 19.292969 88.054688 21.464844 C 88.054688 21.464844 87.640625 19.105469 89.523438 17.078125 C 89.203125 14.695312 88.628906 13.300781 87.210938 11.582031 C 84.695312 8.535156 80.84375 7.515625 75 7.25 C 69.519531 6.996094 65.566406 6.34375 60.929688 5.835938 C 59.332031 5.664062 60.011719 8.742188 60.441406 9.484375 C 61.304688 10.988281 62.53125 11.484375 66.898438 12.773438 C 66.898438 12.773438 63.402344 12.769531 59.832031 10.753906 C 59.019531 12.21875 58.574219 14.148438 58.417969 16.335938 C 61.28125 19.300781 60.667969 22.816406 60.667969 22.816406 C 60.523438 19.675781 58.359375 18.074219 58.359375 18.074219 C 57.195312 18.8125 56.359375 20.804688 56.359375 23.152344 C 56.359375 26.125 57.699219 28.53125 59.351562 28.53125 C 59.507812 28.53125 59.664062 28.507812 59.816406 28.46875 C 61.105469 33.386719 63.132812 38 65.390625 40.730469 C 64.191406 41.890625 63.050781 43 61.988281 43.828125 C 68.699219 43.519531 73.921875 48.175781 73.921875 48.175781 C 73.921875 48.175781 64.632812 42.507812 57.4375 46.675781 C 47.472656 52.453125 36.660156 48.175781 36.660156 48.175781 C 36.660156 48.175781 46.429688 49.941406 56.773438 45.117188 C 56.996094 45.015625 57.21875 44.921875 57.4375 44.832031 C 52.019531 42.734375 46.992188 39.59375 33.902344 45.964844 C 33.902344 45.964844 30.503906 47.398438 28.566406 50.414062 C 28.566406 50.414062 29.09375 47.664062 32.058594 45.191406 C 29.460938 44.269531 24.570312 43.148438 20.359375 45.714844 C 20.359375 45.714844 16.964844 47.148438 15.023438 50.164062 C 15.023438 50.164062 16.5 46.496094 20.621094 43.824219 C 21.242188 40.09375 23.171875 31.691406 28.472656 26.535156 C 28.71875 26.292969 28.945312 26.085938 29.160156 25.902344 C 27.453125 26.222656 26.078125 26.898438 26.078125 26.898438 C 28.839844 24.332031 31.316406 25.363281 33.117188 25.207031 C 35.253906 25.027344 37.8125 26.117188 39.117188 25.925781 C 40.867188 25.671875 43.617188 25.367188 44.296875 24.988281 C 46.179688 23.933594 44.890625 21.773438 43.40625 21.703125 C 41.480469 21.617188 46.960938 21.761719 46.808594 19.539062 C 46.574219 16.097656 46.960938 15.003906 45.949219 13.652344 C 45.496094 13.046875 40.871094 8.835938 39.457031 8.835938 C 35.621094 8.847656 29.769531 12.441406 26.625 13.863281 C 23.96875 15.066406 22.746094 17.484375 21.574219 19.40625 C 19.335938 23.066406 0.15625 47.019531 0.351562 54.277344 C 0.566406 62.167969 16.117188 70.296875 31.878906 65.023438 C 31.878906 65.023438 35.625 63.277344 37.714844 61.726562 C 37.714844 61.726562 35.464844 64.34375 32.691406 66.074219 C 33.578125 67.207031 34.636719 68.679688 35.8125 70.382812 C 39.558594 75.097656 46.460938 82.457031 55.367188 86.113281 C 55.367188 86.113281 50.589844 85.515625 43.976562 82.867188 C 45.464844 85.210938 46.964844 87.589844 48.414062 89.882812 C 50.195312 92.699219 52.496094 95.15625 55.21875 97.074219 C 57.546875 98.71875 60.101562 100.199219 62.84375 101.324219 C 62.84375 101.324219 59.402344 100.894531 54.320312 99.144531 C 55.863281 101.523438 57.160156 103.453125 58.066406 104.65625 C 60.304688 107.640625 63.976562 110.429688 62.988281 119.207031 L 83.453125 80.476562 " fill-opacity="1" fill-rule="nonzero"/></g><g clip-path="url(#3e4e26fd7a)"><path fill="#fff" d="M 128.425781 19.40625 C 127.253906 17.484375 126.03125 15.066406 123.375 13.863281 C 120.230469 12.441406 114.378906 8.847656 110.542969 8.835938 C 109.128906 8.835938 104.503906 13.046875 104.046875 13.652344 C 103.039062 15.003906 103.425781 16.097656 103.191406 19.539062 C 103.039062 21.761719 108.519531 21.617188 106.589844 21.703125 C 105.109375 21.773438 103.820312 23.933594 105.703125 24.988281 C 106.382812 25.367188 109.132812 25.671875 110.882812 25.925781 C 112.1875 26.117188 114.746094 25.027344 116.882812 25.207031 C 118.683594 25.363281 121.160156 24.332031 123.921875 26.898438 C 123.921875 26.898438 122.542969 26.222656 120.839844 25.902344 C 121.054688 26.085938 121.28125 26.292969 121.527344 26.535156 C 126.828125 31.691406 128.757812 40.09375 129.378906 43.824219 C 133.5 46.496094 134.976562 50.164062 134.976562 50.164062 C 133.035156 47.148438 129.636719 45.714844 129.636719 45.714844 C 125.429688 43.148438 120.539062 44.269531 117.945312 45.191406 C 120.90625 47.664062 121.433594 50.414062 121.433594 50.414062 C 119.496094 47.398438 116.097656 45.964844 116.097656 45.964844 C 110.253906 43.117188 106.011719 42.171875 102.628906 42.179688 L 100.019531 46.8125 C 108.578125 49.46875 115.738281 48.175781 115.738281 48.175781 C 115.738281 48.175781 107.679688 51.363281 99.0625 48.515625 L 88.609375 67.078125 L 99.621094 77.65625 L 70.292969 111.015625 C 70.292969 111.015625 92.105469 120.835938 107.054688 111.550781 C 97.019531 102.335938 96.023438 97.796875 97.445312 92.695312 C 99.371094 85.78125 111.183594 67.5 111.183594 67.5 C 126.949219 72.769531 149.433594 62.167969 149.648438 54.277344 C 149.839844 47.019531 130.664062 23.066406 128.425781 19.40625 " fill-opacity="1" fill-rule="nonzero"/></g></svg>